<svg xmlns="http://www.w3.org/2000/svg" viewBox="0 0 500 500"><title>Idea</title><g id="Layer_20" data-name="Layer 20"><path d="M201.29,381c3.92-.68,7.73-3.34,8.67-7.2.66-2.74-.17-5.6-1-8.29l-3.55-11.58a3.05,3.05,0,0,0-1-1.72,3,3,0,0,0-1.88-.33c-11.66.51-23.3,2.13-35,1.94-5.75-.09-17.26-4.58-16.17,2.55C153.37,369.39,191.61,382.64,201.29,381Z" fill="#3fe2fd"/><path d="M394.55,123a1.5,1.5,0,0,0,0-3,1.5,1.5,0,0,0,0,3Z" fill="#3fe2fd"/><path d="M344,116.12c1.18,19.2,12.4,36.16,23.6,51.8,7.59,10.6,15.39,21.12,24.55,30.39a19.55,19.55,0,0,0-8.23,22.7c1.32,3.7,3.81,7.72,2,11.21a8.71,8.71,0,0,1-4.1,3.51,24.43,24.43,0,0,1-33.54-30.93c1-2.61,2.53-5.05,3.31-7.75,2.2-7.64-1.75-15.81-7.12-21.66s-12.19-10.24-17.62-16c-15.29-16.38-17-42.69-7.1-62.81,4.05-8.27,21.08-35,32.07-27.2C361,75.83,343.3,105.2,344,116.12Z" fill="#3fe2fd"/><path d="M114.37,148.92a45.71,45.71,0,0,0-11.54,26.22c-.5,5.37.07,11.12,3.18,15.53s9.31,6.93,14.17,4.56c-9.45,10.19-12.1,24.76-14.35,38.47C94.58,224,87.3,210.17,84,195.68s-2.86-29.65-.38-44.3c1.51-8.87,4.62-18.74,12.78-22.54,4.68-2.18,10.08-1.86,15.23-1.5C135.09,129,126.56,135.47,114.37,148.92Z" fill="#3fe2fd"/></g><g id="Layer_11" data-name="Layer 11"><path d="M181.92,401.08A24.1,24.1,0,0,0,206,377V354.47a77.27,77.27,0,0,1-21.14,3h-8.58a77.34,77.34,0,0,1-18.44-2.24V377A24.1,24.1,0,0,0,181.92,401.08Z" fill="none"/><path d="M105.8,190.29H255.34a7,7,0,0,1,7,7V219.4a64.94,64.94,0,0,1,7.15-8.22l1.08-1c6.05-5.71,10.05-9.48,12.17-16.68,2.05-6.94,2.3-14.91.76-24.36-1.85-11.41-5.66-21-11.31-28.58-7-9.37-18-16.93-31.93-21.87-18.12-6.46-39.38-8.05-61.48-4.6-10,1.55-18.66,5.77-27.87,10.24-7.66,3.71-15.57,7.55-24.5,10-2.53.67-6.51,1.12-12.8,1.78-5.5.58-15.73,1.66-18,2.78C83,146,85.14,172.19,86.56,189.5l.24,3.07C87.47,201,92,207.4,97.3,214.78l1.5,2.12V197.29A7,7,0,0,1,105.8,190.29Z" fill="none"/><path d="M184.86,343.43A63.56,63.56,0,0,0,248.34,280V243.3a7,7,0,0,1,0-3.21v-35.8H112.8V280a63.56,63.56,0,0,0,63.48,63.48Zm-8.35-98.78a7,7,0,0,1,9.77,1.64c2.88,4,4.15,8.67,5.17,12.39l2.48,9.05a17.84,17.84,0,0,1,.71,8.5,10.94,10.94,0,0,1-10.37,8.94H184a7,7,0,0,1-3.33-13c-.06-.26-.13-.51-.19-.71l-2.48-9c-.8-2.93-1.63-5.95-3.08-8A7,7,0,0,1,176.51,244.65ZM152.2,306.43a7,7,0,0,1,8.87-4.4,66.16,66.16,0,0,0,37.71,1.22,7,7,0,0,1,3.6,13.53,80.42,80.42,0,0,1-45.78-1.48A7,7,0,0,1,152.2,306.43Z" fill="none"/><path d="M143.93,379.46a38.07,38.07,0,0,0,76-1.77,7,7,0,0,0,6.7,5c25.71,0,45.6,7.25,59.12,21.53,21,22.15,20.34,53.67,20,59.77a7,7,0,0,0,7,7.38h2.29a7,7,0,0,0,4.8-12.09c-.14-13.05-3-42.55-23.92-64.68-16.27-17.19-39.58-25.91-69.29-25.91a7,7,0,0,0-6.68,4.9V350.43a7,7,0,0,0-.14-1.39A77.55,77.55,0,0,0,262.34,280V243.82c2-2.67,3.89-5.47,5.74-8.2,3.67-5.44,7.13-10.58,11-14.27l1.06-1c6.59-6.2,12.81-12.07,16-22.9,2.65-9,3-19,1.15-30.56-2.22-13.66-6.9-25.34-13.92-34.73-8.66-11.58-21.95-20.8-38.44-26.67-20.32-7.24-44-9-68.34-5.25-12,1.88-22.09,6.76-31.83,11.49-7.38,3.58-14.36,7-22,9-1.6.43-6.41.94-10.65,1.39-11.89,1.25-19.41,2.18-23.47,4.51-20.34,11.66-17.77,43.16-16.07,64l.25,3c1,12.32,7.11,20.92,13.05,29.25a93.48,93.48,0,0,1,8.43,13.32,7,7,0,0,0,4.47,3.68v40a77.57,77.57,0,0,0,45.05,70.34s0,.09,0,.14V371.7a7,7,0,0,0-5.78-3.05c-59.13,0-102.48,38.43-104.81,92a7.49,7.49,0,0,0-.09,1.17v3.37a7,7,0,0,0,14,0c0-24.14,9-44.87,26.15-60,16.53-14.58,39.53-22.61,64.75-22.61A7,7,0,0,0,143.93,379.46ZM97.3,214.78C92,207.4,87.47,201,86.8,192.57l-.24-3.07c-1.42-17.31-3.55-43.48,9-50.67,2.32-1.12,12.55-2.2,18-2.78,6.29-.66,10.27-1.11,12.8-1.78,8.93-2.4,16.84-6.24,24.5-10,9.21-4.47,17.91-8.69,27.87-10.24,22.1-3.45,43.36-1.86,61.48,4.6,13.89,4.94,24.93,12.5,31.93,21.87,5.65,7.55,9.46,17.17,11.31,28.58,1.54,9.45,1.29,17.42-.76,24.36-2.12,7.2-6.12,11-12.17,16.68l-1.08,1a64.94,64.94,0,0,0-7.15,8.22V197.29a7,7,0,0,0-7-7H105.8a7,7,0,0,0-7,7V216.9ZM112.8,280V204.29H248.34v35.8a7,7,0,0,0,0,3.21V280a63.56,63.56,0,0,1-63.48,63.48h-8.58A63.56,63.56,0,0,1,112.8,280Zm63.48,77.48h8.58a77.27,77.27,0,0,0,21.14-3V377a24.08,24.08,0,0,1-48.16,0V355.19A77.34,77.34,0,0,0,176.28,357.43Z" fill="#251ac7"/><path d="M178,262.39l2.48,9c.06.2.13.45.19.71a7,7,0,0,0,3.33,13h.32a10.94,10.94,0,0,0,10.37-8.94,17.84,17.84,0,0,0-.71-8.5l-2.48-9.05c-1-3.72-2.29-8.35-5.17-12.39a7,7,0,0,0-11.41,8.12C176.32,256.44,177.15,259.46,178,262.39Z" fill="#251ac7"/><path d="M202.38,316.78a7,7,0,0,0-3.6-13.53A66.16,66.16,0,0,1,161.07,302a7,7,0,1,0-4.47,13.27,80.42,80.42,0,0,0,45.78,1.48Z" fill="#251ac7"/><path d="M338.37,184.27a25.35,25.35,0,0,1,9.5,11.35c-5.31,1.61-9.09,7-9,13.59v.06l.13,7.84a14.62,14.62,0,0,0,3.95,10,20,20,0,0,0,3.83,16.42A14.55,14.55,0,0,0,358,249h.38l2.49-.07.74,1.55a7,7,0,0,0,6.32,4H368l18.58-.39a7,7,0,0,0,6.29-4.26l.75-1.77L397,248c8.62-.22,15.25-8.19,15.1-18.14a20.53,20.53,0,0,0-.55-4.45,14.82,14.82,0,0,0,3.61-10.14L415,207.4a14.63,14.63,0,0,0-4.24-10.3,13,13,0,0,0-2.05-1.61,25.91,25.91,0,0,1,9.73-13.12,71.87,71.87,0,1,0-80.05,1.9Zm-19.23-62.68A57.81,57.81,0,0,1,371.63,66h0c1.77-.17,3.54-.25,5.3-.25a58,58,0,0,1,47.32,24.51,57.87,57.87,0,0,1-13.91,80.65,39.83,39.83,0,0,0-15.78,23l-10.48.28V133.34a7,7,0,1,0-14,0V194.6l-7.67.2A39.41,39.41,0,0,0,346,172.5,58,58,0,0,1,319.14,121.59ZM396.58,234,358,235a1.34,1.34,0,0,1-.49-.42,6.12,6.12,0,0,1-.1-6.69A7,7,0,0,0,353,216.86l-.13-7.79,48.13-1.3.13,7.71v.07A7,7,0,0,0,397,226.79a5.57,5.57,0,0,1,1,3.26C398.09,232.4,397,233.84,396.58,234Z" fill="#251ac7"/><path d="M289.61,54.13l14.77,12.38a7,7,0,1,0,9-10.72L298.61,43.4a7,7,0,0,0-9,10.73Z" fill="#251ac7"/><path d="M445.08,68.15a7,7,0,0,0,4.5-1.64l14.76-12.38a7,7,0,1,0-9-10.73L440.58,55.79a7,7,0,0,0,4.5,12.36Z" fill="#251ac7"/><path d="M377,46.24a7,7,0,0,0,7-7V22.57a7,7,0,1,0-14,0V39.24A7,7,0,0,0,377,46.24Z" fill="#251ac7"/></g></svg>